<svg xmlns="http://www.w3.org/2000/svg" width="49.738" height="46.833" viewBox="0 0 49.738 46.833">
    <g id="telegram" transform="translate(0 -14.956)">
        <path id="Path_19177" data-name="Path 19177"
              d="M137.479,303.987l-9.734,9.7a1.507,1.507,0,0,1-1.457.379,1.635,1.635,0,0,1-.991-1.137V312.9l-2.8-16.728,2.273-1.719,5.566,3.264,7.14,4.2A1.5,1.5,0,0,1,137.479,303.987Z"
              transform="translate(-110.599 -252.349)" fill="#009ae4"/>
        <path id="Path_19178" data-name="Path 19178"
              d="M49.71,16.705,40.869,60.614a1.428,1.428,0,0,1-.9,1.049,1.143,1.143,0,0,1-.525.117,1.518,1.518,0,0,1-.845-.262L18.2,46.946c-13-6.441-6.22-3.056-17.379-8.626a1.463,1.463,0,0,1,.058-2.652L47.7,15.073a1.444,1.444,0,0,1,1.486.2l.2.2A1.446,1.446,0,0,1,49.71,16.705Z"
              transform="translate(0 0)" fill="#25d9f8"/>
        <path id="Path_19179" data-name="Path 19179"
              d="M159.989,20.364,130.34,50.255,128.8,51.828,126.289,66.6a1.635,1.635,0,0,1-.991-1.137v-.029L122.5,48.71l2.273-1.719Z"
              transform="translate(-110.6 -4.883)" fill="#00c0f1"/>
    </g>
</svg>
