<svg xmlns="http://www.w3.org/2000/svg" width="19.699" height="19.699" viewBox="0 0 19.699 19.699">
    <path id="user"
          d="M16.813,2.885A9.849,9.849,0,0,0,2.884,16.814,9.849,9.849,0,0,0,16.813,2.885ZM4.937,17.02a4.987,4.987,0,0,1,9.823,0,8.676,8.676,0,0,1-9.823,0Zm1.78-8.407a3.132,3.132,0,1,1,3.132,3.132A3.135,3.135,0,0,1,6.717,8.613ZM15.76,16.22a6.151,6.151,0,0,0-3.576-4.015,4.286,4.286,0,1,0-4.671,0A6.15,6.15,0,0,0,3.938,16.22a8.7,8.7,0,1,1,11.823,0Zm0,0"
          transform="translate(0.001)"/>
</svg>
